<?xml version="1.0" standalone="no"?>
<!DOCTYPE svg PUBLIC "-//W3C//DTD SVG 20010904//EN"
 "http://www.w3.org/TR/2001/REC-SVG-20010904/DTD/svg10.dtd">
<svg version="1.0" xmlns="http://www.w3.org/2000/svg"
 width="4177.000000pt" height="4177.000000pt" viewBox="0 0 4177.000000 4177.000000"
 preserveAspectRatio="xMidYMid meet">

<g transform="translate(0.000000,4177.000000) scale(0.100000,-0.100000)"
fill="#000000" stroke="none">
<path d="M1991 26783 c-468 -1497 -757 -3070 -856 -4658 -46 -749 -48 -1662
-5 -2405 238 -4057 1700 -7905 4215 -11090 482 -611 912 -1095 1480 -1668 640
-647 1233 -1174 1920 -1708 2947 -2289 6446 -3689 10140 -4058 707 -71 1226
-96 2000 -96 539 0 829 8 1260 35 3184 200 6235 1154 8970 2805 2861 1728
5250 4168 6927 7075 1490 2581 2374 5477 2583 8460 32 455 37 596 42 1221 5
646 -1 954 -32 1444 -100 1580 -392 3165 -851 4628 l-45 142 -7418 0 -7418 0
-149 -74 c-638 -320 -1071 -826 -1225 -1432 -67 -265 -63 -114 -66 -2391 l-4
-2063 2482 0 2481 0 -4 -27 c-2 -16 -188 -1190 -413 -2610 l-410 -2583 -2067
0 -2068 0 0 -6450 0 -6450 -2800 0 -2800 0 0 6450 0 6450 -2350 0 -2350 0 0
2610 0 2610 2350 0 2349 0 4 2173 c4 2253 3 2217 47 2662 34 339 96 728 159
1005 l28 120 -8033 0 -8033 0 -40 -127z"/>
</g>
</svg>
